<svg xmlns="http://www.w3.org/2000/svg" fill="none" viewBox="0 0 24 24"><path id="SVGRepo_iconCarrier" stroke="#000" stroke-linecap="round" stroke-linejoin="round" stroke-width="2" d="M16 6V4.284c0-.768 0-1.152-.161-1.4a1 1 0 0 0-.614-.43c-.288-.067-.65.064-1.372.327L6.58 5.426c-.57.207-.854.31-1.064.492a1.5 1.5 0 0 0-.416.595c-.1.26-.1.562-.1 1.168v4.32m4 5h6m-6-3.5h6M9 10h6M8.2 21h7.6c1.12 0 1.68 0 2.108-.219a2 2 0 0 0 .874-.874C19 19.48 19 18.92 19 17.8V9.2c0-1.12 0-1.68-.218-2.108a2 2 0 0 0-.874-.874C17.48 6 16.92 6 15.8 6H8.2c-1.12 0-1.68 0-2.108.218a2 2 0 0 0-.874.874C5 7.52 5 8.08 5 9.2v8.6c0 1.12 0 1.68.218 2.108a2 2 0 0 0 .874.874C6.52 21 7.08 21 8.2 21"/></svg>